<svg width="32" height="32" fill="none" xmlns="http://www.w3.org/2000/svg"><g clip-path="url(#clip0)"><path fill-rule="evenodd" clip-rule="evenodd" d="M31.925 17.521A16.19 16.19 0 0031.997 16c0-8.835-7.163-15.998-15.999-15.998C7.774.001 1 6.206.101 14.191a16.09 16.09 0 01.554-2.721c3.924.574 7.771 3.245 10.043 7.43 2.266 4.175 2.416 8.842.775 12.443a15.972 15.972 0 01-2.925-1.185c1.092-3.16 1.25-7.032-.855-10.41C5.88 16.843 2.92 15.13.08 14.379a16.188 16.188 0 00-.08 1.62c0 8.836 7.163 15.999 15.998 15.999 8.323 0 15.161-6.355 15.927-14.477zm-.54 2.855a15.77 15.77 0 00.54-2.855c-3.22-.843-6.508-2.849-8.152-6.45-1.407-3.082-1.219-6.455-.302-9.22A16.086 16.086 0 0020.742.719c-1.557 3.576-1.376 8.159.854 12.265 2.223 4.096 5.955 6.742 9.79 7.392z" fill="#FFC700"/><path d="M23.632 30.058c-7.138 3.876-15.922 1.757-20.568-4.642 4.894 4.355 12.182 5.411 18.272 2.105 7.765-4.215 10.642-13.928 6.426-21.693a16.057 16.057 0 00-1.125-1.784 15.968 15.968 0 013.422 4.321c4.215 7.765 1.338 17.478-6.427 21.693z" fill="#000" fill-opacity=".1"/></g><defs><clipPath id="clip0"><path fill="#fff" d="M0 0h32v32H0z"/></clipPath></defs></svg>