<svg width="120" height="120" fill="none" xmlns="http://www.w3.org/2000/svg"><rect width="120" height="120" rx="20" fill="#5BFF7F"/><rect x="10" y="10" width="100" height="100" rx="14" stroke="#000" stroke-opacity=".8" stroke-width="4" stroke-dasharray="5 5"/><path d="M81.59 55.455H64.546V38.409A3.41 3.41 0 0061.136 35h-2.272a3.41 3.41 0 00-3.41 3.41v17.045H38.41A3.41 3.41 0 0035 58.864v2.272a3.41 3.41 0 003.41 3.41h17.045V81.59A3.41 3.41 0 0058.864 85h2.272a3.41 3.41 0 003.41-3.41V64.546H81.59a3.41 3.41 0 003.41-3.41v-2.272a3.41 3.41 0 00-3.41-3.41z" fill="#000" fill-opacity=".8"/></svg>